<?xml version="1.0" encoding="utf-8"?>
<!-- Generator: Adobe Illustrator 21.0.2, SVG Export Plug-In . SVG Version: 6.00 Build 0)  -->
<svg version="1.1" id="Layer_1" xmlns="http://www.w3.org/2000/svg" xmlns:xlink="http://www.w3.org/1999/xlink" x="0px" y="0px"
	 viewBox="0 0 841 841" style="enable-background:new 0 0 841 841;" xml:space="preserve">
<style type="text/css">
	.st0{display:none;}
	.st1{display:inline;}
	.st2{fill:none;stroke:#000000;stroke-width:1.000000e-03;stroke-miterlimit:10;}
</style>
<g transform="translate(0.000000,841.000000) scale(0.100000,-0.100000)" class="st0">
	<path class="st1" d="M5368,8233c-18-5-32-30-20-37c4-2,6-792,4-1756c-1-1047-6-1749-11-1745c-5,3-12-1-14-7c-3-8-6-6-6,5
		c-1,11-6,15-13,11c-8-5-9,0-5,15c3,13,3,20,0,17c-8-8-44,14-39,23c3,5-12,27-34,50s-38,47-35,52c4,5-1,12-10,15c-11,4-15,14-12,26
		c4,15,2,18-10,14c-13-5-14-4-3,9s10,14-3,10c-8-4-18-1-23,6c-5,8-3,10,5,4c9-5,9-1-1,14c-7,12-21,24-31,27c-13,4-16,9-9,16
		c12,12-8,38-30,38c-10,0-9,3,2,10c12,8,12,10-5,11c-11,0-15,3-8,6c10,3,10,7,0,18c-7,7-16,10-21,7s-7,5-4,16c4,12,1,25-4,29
		c-7,3-8,1-4-5c4-7,2-12-3-12c-6,0-11,5-11,11c0,5-6,7-12,3c-8-5-7,0,2,11s10,16,3,11c-8-4-13-1-13,8s-5,16-11,16s-9,7-6,15
		c4,8,1,17-5,21c-7,4-8,3-4-4s2-12-3-12c-6,0-11,9-11,20s-4,20-10,20c-5,0-10,6-10,14c0,7-10,21-22,30c-13,9-17,14-10,11
		c16-8,16,3-1,19c-7,7-19,11-27,9c-11-3-10-1,2,7c18,11,20,9-54,89c-16,17-28,38-28,47c0,14-2,15-17,3c-15-13-15-12-4,9
		c9,18,9,22-1,20c-7-2-12,5-12,14c1,10-4,14-13,11c-10-4-14,0-11,13c2,11-2,18-9,16c-8-1-13,9-13,24c0,21-3,24-13,15
		c-11-8-13-6-13,12c1,12-4,22-11,22c-6,0-15,4-20,9s-3,6,5,2c18-10,15,2-7,30c-10,13-22,20-26,16s-2,4,5,18c12,23,12,24-3,11
		c-15-12-17-11-17,8c0,13-6,21-16,21c-14,0-15,2-3,17c10,11,10,14,2,9c-12-7-18,5-14,27c1,5-3,6-9,2c-6-3-7-12-3-18c4-8,1-7-9,1
		c-9,7-15,22-13,33c3,12,0,17-7,13c-8-5-9-1-4,11c6,16,4,16-11,4c-9-8-14-9-10-2c9,14-2,45-14,37c-5-3-9-1-9,5c0,5,6,12,13,15
		c6,4,2,4-11,2c-12-2-20-1-18,2c7,12-13,53-23,48c-5-4-8,5-6,19c1,14,0,23-3,21c-7-8-33,22-30,36c2,7-7,14-20,16c-20,3-21,6-10,20
		c10,12,10,14,1,8c-12-7-18,10-14,39c1,6-6,1-15-10c-15-18-16-18-10-1c4,13-2,26-20,43c-14,13-23,30-20,38s0,14-7,12c-7-1-11,4-9,11
		c1,8-2,11-8,7c-5-3-10-1-10,5s-5,8-12,4c-9-5-9-2,1,9c9,12,10,17,2,17c-7,0-9,5-6,10c4,6,3,10-2,9c-4-1-14-1-22,0c-11,1-11,4,0,18
		c8,9,9,14,3,10c-11-7-29,19-25,36c1,5-8,11-19,14c-17,5-18,8-8,22c7,9,9,13,5,10c-5-4-19,4-33,18c-25,25-32,39-12,27c7-4,8-3,4,4
		c-4,6-14,8-23,5c-11-4-14-3-9,5c4,7,2,12-4,12s-8,5-5,10c3,6,1,10-4,10c-6,0-11,7-11,15c0,9-7,18-16,22c-8,3-13,11-10,19
		c3,7-3,18-12,26c-16,12-16,11-2-7c14-19,14-19-3-6c-13,10-14,17-7,26c8,10,8,15-1,21c-8,4-9,3-5-4s3-12-2-12c-6,0-13,7-16,16
		c-9,22-8,26,6,18c7-4,8-3,4,4c-4,6-14,8-23,5c-11-4-14-3-9,5c4,7,2,12-4,12s-8,5-5,10c3,6,1,10-5,10s-8,5-5,10c3,6-1,13-9,16
		c-9,3-16,13-16,21c0,10-6,13-16,9c-14-5-15-4-4,9c10,12,10,15-4,15c-9,0-16,8-16,18c0,9-11,26-25,36c-14,11-24,24-22,30
		c6,14-18,37-29,28c-4-4-4-2,0,5c3,6-2,16-11,22c-14,8-15,11-3,11s11,3-3,11c-9,6-15,14-12,19s1,11-5,15s-7,11-4,17c4,7,2,8-5,4
		c-9-6-9-11-1-21c8-9,8-15,0-20c-6-4-10-3-9,2c1,7,0,11-6,31c-2,4-6,17-10,29c-4,11-16,24-28,27c-18,4-19,7-6,22c12,16,12,17-4,11
		c-11-4-16-3-12,3c3,6-1,13-10,16c-12,5-13,9-4,21c7,8,8,13,3,12c-19-3-34,1-34,12c0,5,5,7,12,3s8-3,4,4s-14,12-22,12s-14,10-14,23
		c0,18-2,19-10,7c-8-13-10-12-10,4c0,10-11,27-25,37c-13,11-22,25-19,32c2,7-7,20-20,30c-14,11-22,25-19,33s0,14-7,14
		c-10,0-10,3-1,14c10,12,9,14-6,10c-14-4-21,3-28,28c-6,18-16,32-22,31c-7-2-17,13-24,32s-17,31-23,28c-5-4-7,1-3,10c3,9,1,19-5,23
		s-8,3-4-4c3-6,3-13-2-16c-4-2-9,5-9,17c-1,12-7,23-13,25c-5,2-8,8-4,13c3,5-2,9-12,9c-14,0-15,2-3,18c7,9,10,14,5,10s-17-3-28,3
		c-16,8-17,13-7,25s9,13-6,7c-14-5-17-3-12,9c3,10,0,19-9,22c-8,3-14,11-14,18c0,9,3,9,11-2c9-13,10-13,6,0c-2,8-12,14-22,12
		s-14,1-10,7c3,6-1,14-10,17c-11,5-13,9-5,14c7,5,6,11-6,21c-12,9-15,10-10,2c4-7,2-13-3-13c-15,0-14,13,2,29c10,10,9,12-3,9
		c-9-2-14,3-12,12c2,8,1,12-3,8s-14-1-21,7c-17,17-18,29-2,19c7-4,8-3,4,4c-4,6-13,9-22,5c-8-3-14-2-13,3c4,22-2,34-18,35
		c-10,0-13,3-6,5c15,7,5,34-12,34c-8,0-17,5-21,12s-3,8,5,4c8-6,8-1,0,18c-7,14-16,23-20,20c-5-3-11,7-15,21c-3,14-11,25-17,25
		s-7,3-4,6c4,4-8,20-26,37c-17,16-24,24-14,17c15-11,17-10,11,4c-3,9-13,16-21,16c-10,0-13,6-9,16c5,12,2,15-10,10c-14-5-15-4-5,8
		c9,11,9,16,0,22c-8,4-9,3-5-4s2-12-3-12c-10,0-16,30-12,54c1,5-6,3-15-5c-12-9-15-9-10-1c4,6,2,12-3,12c-6,0-11,10-11,23
		c0,18-2,19-10,7c-8-13-10-12-10,3c0,23-26,51-35,37c-4-6-13-7-23-1c-12,6-24,5-36-5c-10-7-23-11-27-8c-5,3-9,0-9-6s-4-8-10-5
		s-10,0-10-7c-1-8-7-5-17,7c-11,14-14,15-10,3c5-16-22-32-49-29c-7,1-15-6-18-15c-5-14-9-14-23-3c-9,8-14,9-11,4c4-6-5-15-18-22
		c-15-7-22-7-18-1s1,8-7,6c-8-3-13-11-11-17c1-7-2-10-8-6c-5,3-10,0-10-7c0-10-2-10-9,0c-7,11-13,9-31-10c-13-12-20-18-16-11
		c5,10-12,11-34,3c-3-1-8-2-12-1c-4,0-5-5-2-13c3-9-1-13-13-13c-10,1-17-3-16-9c1-7-6-10-17-7s-20,0-20-6s-11-11-25-11
		c-17,0-25-6-25-17c0-14-2-15-9-4c-6,9-11,10-15,2c-4-6-4-16-1-21c8-13-18-8-27,5c-5,6-8,5-8-2s-9-13-21-13c-11,0-18-4-15-9
		c3-4-5-7-19-6c-16,2-22-1-18-11c3-9-1-12-15-9c-14,2-26-5-37-21c-13-20-19-22-35-14s-18,8-14-4c3-8,0-17-7-22c-8-4-10-3-5,4
		c13,21-5,12-31-15c-15-16-23-23-19-16c3,6,2,15-4,18c-6,4-10,3-9-2c3-20-2-34-11-28c-5,3-10,1-10-5c0-7-8-9-20-5c-14,4-20,2-18-7
		c2-7-8-14-21-16c-19-3-21-6-10-13c10-6,8-9-11-10c-14-1-29-1-34,0s-3-5,4-14c11-13,10-15-4-9c-10,4-18,0-22-10c-3-9-13-16-21-16
		s-11-5-7-11c4-8,0-8-15,0c-12,7-21,8-20,4c4-23-3-31-22-28c-17,3-19,1-9-10c8-10,8-15-1-21c-8-5-9-3-4,6c5,8,3,11-6,8
		c-8-3-13-10-12-16c1-5-5-9-15-8c-9,0-16-5-14-12c2-10-2-10-19-2c-19,11-20,10-8-12c11-20,10-22-3-10c-13,10-17,10-22-3
		c-3-9-10-13-16-10c-9,5-14-7-12-26c1-4-9-5-21-2c-18,4-20,3-7-7c12-10,11-11-8-7c-12,3-20,1-16-4c3-5-2-9-11-9c-12,0-15-5-11-16
		c6-15,4-15-11-3c-11,9-14,10-9,2c4-8,2-13-4-13s-8-4-5-10c3-5-1-10-10-10c-10,0-13,5-9,12s3,8-4,4c-9-5-9-13-1-29c7-12,8-19,4-15
		s-14,0-22-10c-13-15-13-14-3,8c10,24,10,23-13-4c-17-19-29-26-38-20c-11,6-11,5,0-9c12-15,12-17-2-12c-8,4-18,1-23-6c-5-8-3-10,6-4
		c9,5,11,4,6-3c-4-7-17-12-29-12c-16,0-18-3-9-9c10-6,8-10-8-14c-15-4-19-10-14-19s2-8-11,2c-15,12-17,12-10,1c6-11,4-13-8-8
		c-11,4-14,2-11-8c4-10,0-13-16-10c-19,4-20,2-8-12c11-14,11-16-1-8c-11,6-13,4-8-9c6-14,3-15-14-5c-19,10-20,9-8-13
		c11-20,10-21-3-11c-15,13-28,8-28-11c0-6,5-4,10,4s10,10,10,4c0-19-13-24-28-11c-13,10-14,9-3-11c12-22,11-23-7-13
		c-18,9-20,8-18-13c3-20-1-23-20-21c-15,1-21-2-17-11c3-8-1-14-11-14s-13-6-10-15c5-12,2-14-12-8c-17,6-18,5-4-12s14-18-8-6
		c-23,12-23,12-11-11c6-13,8-20,4-16s-14,0-22-10c-13-15-13-14-3,8s10,23-3,8c-8-10-18-14-22-10s-2-3,4-15c9-19,9-22-3-17
		c-8,3-17,0-22-7c-5-8-3-10,7-4c12,7,12,6,1-7c-8-10-21-14-30-11c-13,4-12,2,3-11c20-17,20-17-2-13c-20,4-21,3-12-15
		c10-18,9-19-11-8c-15,8-20,8-16,1c4-6,2-11-3-11c-6,0-11-4-11-10c0-5,8-7,18-4c14,5,15,4,2-5c-8-6-24-11-35-11c-17,0-18-2-5-11
		c12-9,11-10-7-6c-16,4-20,1-16-11c5-12,2-14-13-8s-16,5-7-5c10-10,9-16-4-31c-9-10-23-18-32-18c-14,0-14-2-1-10c10-6,11-10,3-10
		c-7,0-13-7-13-15s-4-15-10-15c-7,0-10-875-10-2605c0-2077,3-2605,13-2605c9,0,8-3-2-9c-11-7-9-10,9-16s20-9,9-16s-10-9,5-9
		c12,0,16-5,13-15c-4-8-2-17,3-20c4-3,11,1,13,7c3,7,6,3,6-9c1-12,5-25,11-28s7,1,4,9c-3,9-1,16,5,16s10-3,10-7c-4-27,4-45,27-53
		c15-6,22-14,18-22c-5-7-2-9,8-5c22,8,30-3,15-21c-10-13-9-14,1-8c7,4,15,1,18-9c6-14,9-14,16-3c7,9,8,6,5-10c-5-20-3-22,11-10
		c9,7,13,8,9,2c-10-17,22-57,37-45c8,7,12,4,13-11c2-27,14-39,41-41c11,0,18-5,16-9c-3-5,2-11,11-14c10-4,15-14,12-25
		c-4-13,0-16,15-14c12,3,18,2,15-2c-4-3,1-12,11-20c9-8,11-11,3-7c-10,5-12,3-7-5c5-7,15-10,24-6c9,3,13,3,9-1c-4-5,3-14,15-22
		c14-8,16-11,5-8s-15,2-12-4s16-10,28-11c12,0,16-3,10-6c-7-2-13-9-13-14c0-6,4-8,9-5c14,9,39-3,46-22c5-13,1-12-17,4
		c-13,11-18,12-10,3c6-9,8-19,4-23s-2-6,4-4c18,6,84-36,84-54c0-9,10-20,22-24c12-3,32-19,46-35c13-16,32-29,43-29c10,0,23-9,29-21
		c9-16,14-18,26-8c13,10,14,8,10-13c-3-21-1-25,13-21c10,2,24-4,32-13c12-15,12-16,0-9c-10,5-12,4-7-4c6-9,11-9,24,1
		c12,10,14,10,8,0c-6-11,4-16,25-14c4,1,5-9,3-21s-1-16,2-9c4,9,12,5,28-15c21-28,53-45,41-21c-4,7,5-2,20-20s31-30,36-26
		c5,3,12-1,15-10c3-8,12-12,19-10c7,3,16,0,21-7c5-8,3-10-6-4c-8,5-11,4-6-3c4-6,13-9,21-5c10,3,15-1,15-12c0-15,2-16,17-4
		c11,10,14,10,9,2c-4-8-2-13,4-13s8-5,4-12c-5-8-2-8,10,1c15,12,17,12,14,0c-2-8,5-14,16-14s21-6,24-13c2-6,8-10,13-6c5,3,9,0,9-6
		s5-8,12-4s8,3,4-5c-7-11,32-33,46-25c4,3,12-5,18-16c10-18,14-19,28-8c9,7,14,9,10,4c-3-4,2-16,13-27c24-24,30-24,22-1
		c-4,12-1,11,14-6c11-12,26-22,33-22s10-7,6-17c-6-15-4-15,14,2s20,17,20,1c0-9,4-15,9-12c5,4,11,2,13-4c1-5,13-11,26-13s27-9,31-16
		c4-6,14-10,22-8s11,2,7,0c-4-3-2-10,5-18c9-9,14-10,19-1c6,8,8,8,8-1c0-7,10-17,21-24c15-8,19-8,15,0c-12,19,2,12,25-12
		c12-12,19-17,15-10s4,6,24-3c16-9,34-13,39-10c5,4,17-4,25-16c11-15,16-18,16-8c0,9,3,11,8,5c4-5,18-16,31-23c19-11,22-11,16,0
		c-6,10-5,11,6,1c7-7,21-13,32-13c12,0,16-4,11-12c-6-10-4-10,8,0c13,10,17,10,23-5c5-10,7-22,6-26c-1-5,3-6,9-2c6,3,7,11,4,17
		c-8,13,12,2,38-19c11-10,18-11,23-4c3,6,12,11,18,11c7,0,6-4-3-10c-12-8-10-10,10-11c14-1,31-2,38-2c6,1,12-2,12-6s6-8,13-8
		c11,0,13,307,13,1740c-1,956,1,1742,4,1746s14,11,24,14c17,7,17,6,5-10c-12-15-12-16,5-10c12,5,17,3,13-5c-5-15,17-40,27-31
		c3,4,6-1,6-10c0-10,5-17,11-17c8,0,7-5-1-16c-8-8-9-14-4-13c19,3,34-1,34-12c0-5-5-7-12-3s-8,3-4-4s14-12,22-12s14-9,14-20
		s5-20,11-20s8-9,4-22c-5-17-4-19,3-9c9,12,13,12,26-2c12-11,13-17,3-20c-7-3-4-6,7-6c12-1,16-6,12-16c-3-9,4-21,20-31
		c14-10,23-23,20-31c-4-9-1-11,6-7c8,5,9,2,5-10c-4-10-3-15,3-11c6,3,10,1,10-4c0-6,5-11,11-11c5,0,7,5,3,12s-3,8,5,4c9-6,9-11,0-22
		s-8-14,6-14c12,0,15-5,11-16c-5-12-2-15,9-10c9,3,13,2,10-4s-1-10,6-10c8,0,7-5-2-16c-12-15-11-16,9-9c22,6,23,5,11-17
		c-11-20-11-22,3-10c13,10,18,10,24,1c4-8,3-9-4-5s-12,2-12-3c0-6,4-11,9-11s11-9,14-20c4-14,10-18,24-14c15,6,16,4,6-7
		c-14-14-17-30-5-28c4,1,14,1,22,0c13-1,13-2,0-11c-13-8-12-10,4-10c12,0,16-5,13-14c-3-8,1-20,8-26c8-7,12-16,9-21s2-6,10-3
		c15,6,21-6,17-30c-1-5,6-6,15-2c14,5,15,4,5-8c-11-13-9-15,9-11c19,4,20,2,8-12c-9-12-9-15,0-9c10,6,16-3,14-24c0-3,9-17,20-30
		c11-14,16-18,12-10c-7,13-6,13,10,1c13-11,14-16,4-22c-10-7-10-9,2-10c8-1,19-1,24,0s3-6-5-15c-9-12-9-15-1-10c7,4,12,2,12-4
		s5-8,13-4c8,5,8,3-2-9c-11-14-11-18,5-24c25-9,45-29,37-37c-3-3,2-8,11-12c9-3,16-12,16-20s6-14,13-14c8,0,7-4-3-10
		c-13-8-12-10,3-10c11,0,17-6,15-18c-2-10,3-17,12-16s17-7,17-18c1-10,9-25,17-34c9-8,16-20,16-26s6-6,15,2c18,15,19,7,4-22
		c-9-18-9-20,4-15c11,4,18-1,23-15c4-12,16-30,28-40c13-10,16-17,8-18c-7,0-11-4-7-10c3-5,11-7,19-4c7,3,13-2,14-11c1-8,3-22,4-30
		s6-11,11-8c14,8,28-19,16-33c-6-8-2-11,15-9c19,3,23-1,18-18c-4-15-2-18,8-12s12,4,7-8c-4-12-1-17,11-17c15,0,15-2,2-10
		c-13-9-13-10,0-11c8-1,18-1,23,0c6,1,12-38,9-60c-1-4,9-5,21-2c18,4,19,3,7-6c-13-9-12-11,4-11c12,0,16-5,12-16c-3-8-2-12,4-9
		s10-1,10-9s9-21,21-29c15-11,17-16,7-21c-7-3-3-4,10-2c12,2,20,1,17-4c-2-4,7-20,20-36c14-16,25-37,25-47c0-12,4-16,13-11
		c8,6,8,3-1-9c-12-14-11-16,7-12c23,4,27-5,10-22c-8-8-5-13,10-18c12-3,21-13,21-21s4-13,9-10c11,7,23-22,15-35c-3-5-2-9,3-8
		c26,4,35-1,24-15c-10-12-8-14,11-10c13,2,17,1,9-2c-11-5-8-10,10-21s19-13,4-9c-16,5-14,1,8-19c15-14,22-25,15-25c-8,0-6-5,5-11
		c10-6,14-15,10-22c-5-9-2-8,9,0c18,16,32,5,17-14c-9-10-7-13,6-13c11,0,15-5,11-15c-4-11,0-15,11-13c10,2,18-4,19-12
		c3-36,4-41,12-36c4,2,14-5,22-17c11-19,11-21-1-12c-8,6-7,2,4-7c10-10,16-22,12-28c-3-5-2-10,3-10c16,0,57-40,41-40c-9,0-7-5,6-12
		c26-15,49-38,38-38c-5,0-15,6-23,13c-7,6-5,0,6-14c10-15,25-24,32-22c7,3,12,2,10-3c-5-14,28-55,37-46c5,4,5,2,2-5
		c-9-14,2-43,15-43c5,0,6,5,2,12s-3,8,5,4c9-6,9-11,1-21s-5-17,12-29c12-9,18-16,13-16s0-7,11-16c10-8,13-12,5-8c-10,5-12,3-7-5
		c5-7,14-10,21-7c9,3,11-2,7-16c-4-16-2-19,8-13s12,4,6-10c-5-15-4-16,9-5c9,7,15,9,14,4c-4-25,2-54,11-49c6,3,10,1,10-5s5-8,13-4
		c7,5,6,0-3-11c-14-17-13-18,2-13c10,4,19,1,22-8s1-12-4-9c-6,3-10,2-10-3s10-12,21-15c16-4,20-11,16-26c-3-12-1-18,4-15s12-2,15-10
		c3-9,10-13,15-10s9-2,9-10c0-9,5-16,11-16c8,0,7-6-2-16c-12-15-11-16,9-10c12,4,22,4,21-1c-4-25,3-41,23-46c18-5,19-8,8-21
		c-11-14-9-16,9-16c11,0,21-5,21-11c0-5-4-8-8-5c-5,3-9-1-9-9s8-12,20-10c13,3,17,0,13-10c-3-9,1-15,10-15c8,0,12-4,9-10
		c-3-5,2-10,12-11c10,0,13-3,6-6c-10-3-10-7,0-18c7-7,15-11,19-8c4,2,5-2,2-10c-5-14,38-67,55-67c5,0,8-8,7-18c0-9,5-16,12-14
		c10,2,11-4,7-19c-6-18-4-21,10-15c15,5,16,4,5-9s-11-16,1-13c8,2,14-5,14-15s7-24,16-30c9-7,19-22,23-35c4-12,16-27,27-33
		c11-5,17-14,14-18c-2-5,5-11,16-14c12-3,18-10,15-15c-5-9,27-54,38-53c7,1,6-12-1-19c-4-3-3,1,2,9c6,10,4,12-4,7
		c-16-10,14-46,38-46c14,0,14-2,1-10c-8-5-10-10-4-10c7,0,14-9,17-20c3-13,10-18,21-14c12,5,15,2,10-10c-3-9-1-16,4-16
		c6,0,12-10,14-22s14-28,28-35s18-13,10-13c-13,0-13-2,0-9c8-6,19-7,25-3c5,3,4-1-3-10c-16-20-9-24,47-27c34-2,41,0,35,11
		c-6,10-4,10,9-1c12-9,17-10,17-2c0,7,4,10,9,7s14,1,21,9c10,12,16,12,26,4c11-9,15-7,20,5c3,9,10,13,15,10s9,1,9,8c0,9,3,9,10-2
		c7-11,10-11,10-2c0,7,5,10,10,7c6-3,10-1,10,6c0,7,3,9,7,6c3-4,13-1,21,6c13,9,14,9,8,0c-5-9-2-11,8-7c9,3,14,9,12,13
		c-3,4,5,13,17,21c20,12,21,12,8-4s-12-16,12-5c15,7,27,17,27,23s4,5,9-3c7-11,11-9,20,8c7,12,17,19,22,15c6-3,17,2,25,12
		c12,15,17,16,21,6s12-8,31,10c14,13,22,18,19,11c-5-7-1-10,10-8c10,1,17,9,17,18c-1,9,4,13,13,10c8-3,21,3,29,13c9,11,13,13,9,7
		c-3-7-1-13,4-13c6,0,11,4,11,9c0,10,39,27,54,23c5-2,6,4,3,12c-7,17,13,18,25,1c4-5,8,1,8,15s4,21,8,15c9-12,36-19,28-7
		c-3,5,6,15,19,22s21,18,18,24c-4,6,2,4,12-4s16-10,13-5c-3,6,0,16,8,23c11,10,14,10,14,0c1-8,8-4,19,9c13,15,21,19,29,11
		c7-7,14-3,22,12c10,18,14,20,22,9c7-10,7-8,3,9c-7,23,9,32,18,10c4-10,6-10,6,0c1,7,5,10,11,7s7,1,4,10c-5,11-2,14,10,9
		c10-4,18,0,22,10c5,13,9,14,20,5c12-10,13-8,7,6c-5,14-3,17,10,12c9-3,19-1,23,5c5,7,2,8-7,4c-8-4-5,0,6,8c11,9,25,14,33,11
		c7-2,11-1,8,4c-8,12,21,34,34,26c5-3,10,1,10,9s5,18,12,22c7,5,8,3,3-6c-13-22,35,15,52,40c12,18,17,19,31,8c12-10,14-10,8,0
		c-4,7-2,12,4,12s8,5,4,13c-5,7-1,7,12-3c10-8,16-11,12-6s5,21,20,36c20,20,30,25,40,17c9-7,11-6,6,8c-6,14-4,16,6,10s12-4,7,9
		c-4,10-3,15,3,11s14,4,19,17c6,13,10,17,11,8c0-11,6-9,19,8c20,23,38,31,25,10c-5-7-3-8,5-4c7,5,10,14,7,22s0,11,10,7
		c10-3,12,0,9,10c-4,10,2,17,20,21c21,5,24,10,16,20c-8,9-7,13,4,13c8,0,15-5,15-10c0-6,12,3,27,19c15,16,36,34,47,40
		c12,5,20,17,20,26c-1,11,4,14,14,11c10-4,13-2,8,5c-4,7-1,12,8,12c8,0,18,5,22,12s3,8-4,4s-12-3-12,2s14,15,30,22
		c29,12,33,19,31,50c0,10,1,11,5,3c8-18,27-16,21,1c-4,11-1,13,11,9c9-3,14-3,10,2c-4,4-1,14,7,21c17,17,29,18,19,2c-4-7-3-8,5-4
		c9,6,9,11-1,24c-10,12-10,14,0,8c7-4,12-2,12,4s5,8,10,5c6-3,10,1,10,10s5,13,11,9c8-4,9,1,5,17c-3,13-3,18,0,12c7-16,27-17,22-2
		s61,80,83,82c10,1,15,7,11,16c-3,9-1,12,6,7c8-5,10-2,6,8c-3,9-1,16,6,16c6,0,8,5,4,12c-5,8-2,9,10,5c10-4,15-3,11,3
		c-3,6,0,10,7,11c7,0,4,4-7,9c-15,7-16,9-4,9c20,1,31,35,16,50c-6,6-7,15-1,23c11,16,11,38,1,56c-5,7-2,14,8,18c12,5,13,9,4,20
		s-8,14,1,14c7,0,10,7,7,15c-4,8-3,17,2,19c4,3,5,26,1,50c-4,25-3,51,1,58c4,6,4,19-1,28s-4,23,2,34c8,14,7,21-3,27c-12,7-12,9,0,9
		c10,0,11,3,2,14c-7,8-8,17-4,19c10,6,10,48,0,64c-4,7-3,14,1,17c5,3,6,26,2,50c-4,25-3,51,1,58s3,18-3,25s-7,13-2,13
		c10,0,10,113,0,129c-4,6-2,11,5,11c9,0,9,3,0,14c-7,8-8,17-3,20s6,26,2,50c-4,25-3,51,1,58c4,6,4,19-1,28s-4,23,2,34
		c8,14,7,21-3,27c-12,7-12,9,0,9c10,0,11,3,2,14c-7,8-8,17-4,19c10,6,10,48,0,64c-4,7-3,14,1,17c5,3,6,26,2,50c-4,25-3,51,1,58
		s3,18-3,25s-7,13-2,13c10,0,10,113,0,129c-4,6-2,11,5,11c9,0,9,3,0,14c-7,8-8,17-3,20s6,26,2,50c-4,25-3,51,1,58c4,6,4,19-1,28
		s-4,23,2,34c8,14,7,21-3,27c-12,7-12,9,0,9c10,0,11,3,2,14c-7,8-8,17-3,20s6,26,2,50c-4,25-3,51,1,58c4,6,4,19-1,28s-4,23,2,34
		c8,14,7,21-3,27c-12,7-12,9,0,9c10,0,11,3,2,14c-7,8-8,17-3,20s6,26,2,50c-4,25-3,51,1,58c4,6,4,19-1,28s-4,23,2,34c8,14,7,21-3,27
		c-12,7-12,9,0,9c10,0,11,3,2,14c-7,8-8,17-3,20s6,26,2,50c-4,25-3,51,1,58s3,18-3,25c-7,9-7,13,0,13c6,0,7,13,2,34c-4,19-4,40,1,47
		c4,7,3,19-3,26c-7,9-7,13,2,13s9,4,2,13c-7,8-7,18-2,27s5,19-2,27c-7,9-7,13,2,13s9,4,2,13c-7,8-7,18-2,27s5,19-2,27
		c-7,9-7,13,2,13s9,4,2,13c-7,8-7,18-2,27s5,19-2,27c-7,9-7,13,0,13c6,0,7,13,2,34c-4,19-4,40,1,47c4,7,4,20-1,29s-4,23,2,34
		c8,14,7,21-3,27c-12,7-12,9,0,9c10,0,11,3,2,14c-7,8-8,17-3,20s6,26,2,50c-4,25-3,51,1,58c4,6,4,19-1,28s-4,23,2,34c8,14,7,21-3,27
		c-12,7-12,9,0,9c10,0,11,3,2,14c-7,8-8,17-3,20s6,26,2,50c-4,25-3,51,1,58s3,18-3,25c-7,9-7,13,0,13c6,0,7,13,2,34c-4,19-4,40,1,47
		c4,7,3,19-3,26c-7,9-7,13,2,13s9,4,2,13c-7,8-7,18-2,27s5,19-2,27c-7,9-7,13,2,13s9,4,2,13c-7,8-7,18-2,27s5,19-2,27
		c-7,9-7,13,2,13s9,4,2,13c-7,8-7,18-2,27s5,19-2,27c-7,9-7,13,0,13c6,0,7,13,2,34c-4,19-4,40,1,47c4,7,4,20-1,29s-4,23,2,34
		c8,14,7,21-3,27c-12,7-12,9,0,9c10,0,11,3,2,14c-7,8-8,17-3,20s6,26,2,50c-4,25-3,51,1,58c4,6,4,19-1,28s-4,23,2,34c8,14,7,21-3,27
		c-12,7-12,9,0,9c10,0,11,3,2,14c-7,8-8,17-3,20s6,26,2,50c-4,25-3,51,1,58s3,18-3,25s-6,13-1,13s6,24,3,55c-3,30-3,61,1,67
		c4,7,4,19-1,28s-4,23,2,34c8,14,7,21-3,27c-12,7-12,9,0,9c10,0,11,3,2,14c-7,8-8,17-3,20s6,26,2,50c-4,25-3,51,1,58c4,6,4,19-1,28
		s-4,23,2,34c8,14,7,21-3,27c-12,7-12,9,0,9c10,0,11,3,2,14c-7,8-8,17-3,20s6,26,2,50c-4,25-3,51,1,58s3,18-3,25c-7,9-7,13,0,13
		c6,0,7,13,2,34c-4,19-4,40,1,47c4,7,3,19-3,26c-7,9-7,13,2,13s9,4,2,13c-7,8-7,18-2,27s5,19-2,27c-7,9-7,13,2,13s9,4,2,13
		c-7,8-7,18-2,27s5,19-2,27c-7,9-7,13,2,13s9,4,2,13c-7,8-7,18-2,27s5,19-2,27c-6,7-7,13-2,13s9,11,9,25s-4,25-8,25c-5,0-7,8-5,18
		c2,9-5,21-17,27c-12,7-20,20-19,33c1,16-3,21-12,18c-8-3-13-2-12,2c3,15-15,42-28,42s-19,13-15,34c1,5-6,3-15-5c-12-9-15-9-10-1
		c4,6,2,12-3,12c-6,0-11,10-11,23c0,17-2,19-10,7c-8-13-11-13-22-1c-9,10-10,12-1,7s11-2,7,8c-3,9-12,12-22,8c-15-5-16-4-2,13
		c9,11,10,16,3,11c-8-4-13-2-13,6c0,9-3,9-10-2c-8-12-10-11-10,6c0,18-55,82-72,84c-5,0-13,0-19,0s-9,9-6,20c4,17,2,18-16,9
		c-18-10-20-9-10,2c11,10,8,15-15,26c-15,7-18,11-7,8l20-5l-20,16c-11,8-19,20-17,26s-5,5-14-3c-10-8-15-9-11-2s-1,14-13,18
		c-18,6-19,9-8,23c10,12,10,14,1,8c-7-4-13-3-13,3c0,5-10,11-22,13s-23,9-24,16s0,8,3,2c2-5,9-10,15-10c7,0,6,5-1,14
		c-7,8-21,13-32,11s-17,0-13,6c3,6-2,9-12,7c-13-2-18,2-16,15c2,9-1,17-5,16c-22-4-33,3-33,20c0,10-8,25-17,32c-16,13-17,12-4-4
		c12-15,12-17-3-11c-9,3-16,13-16,21s-4,11-10,8c-5-3-10-1-10,4c0,6-5,11-11,11c-5,0-7-6-3-12c4-8,3-10-2-5s-10,13-10,18
		c-1,5-2,14-3,19c0,6-8,10-17,10c-8,0-12,4-9,10c4,6-1,7-12,3c-16-6-16-5-4,10s12,17-3,11c-11-4-23,1-32,12s-13,14-10,8s-1-11-9-11
		s-13,3-10,5c3,3-3,11-13,19c-9,8-11,11-3,7c9-4,12-3,7,4c-4,6-14,8-23,5c-13-5-15-2-10,12c6,15,5,16-8,5c-12-10-15-10-15,4
		s-18,21-43,17c-5-1-6,3-2,9c3,5,1,10-5,10c-15,0-41,26-33,34c4,3-6,6-21,6c-19,0-29,7-35,23c-5,13-16,24-25,24c-8,0-13-5-10-11
		s-1-3-10,8s-20,15-28,10c-9-5-8-2,2,11c8,10,10,16,3,12c-6-4-18,0-26,8c-9,8-25,15-36,15s-23,5-27,12s-3,8,4,4c18-11,14,0-5,15
		c-14,12-16,12-8,0c6-11,4-13-11-7c-10,5-25,9-31,9c-10,0-10,4-1,14c9,11,7,12-7,7c-13-5-16-4-11,4s2,10-8,6c-9-3-16-2-16,4
		c0,5-11,13-25,16c-17,4-23,11-18,19s2,8-9-1c-13-10-18-10-24-1c-5,8-3,9,6,4c9-6,11-4,5,4c-4,7-18,11-31,8c-13-2-21,0-18,4
		c3,5,0,9-6,9s-8,6-4,13c4,6,4,9-1,5c-4-4-17-1-29,7c-11,8-25,15-31,15c-5,0-3-5,5-10c10-7,11-10,2-10c-7,0-15,7-18,15
		c-4,8-15,15-26,15c-13,0-18,5-15,13s-1,14-9,14c-7,0-11-5-8-11s-1-3-9,6c-8,10-17,15-20,11c-4-3-7-1-7,5s-9,9-20,7s-20,0-20,6
		c0,5-12,9-26,9s-23,4-19,10c3,6-1,10-10,10s-30,7-47,16c-16,9-27,11-24,5c4-6,2-11-3-11c-6,0-11,6-11,14c0,17-27,29-36,15
		c-4-6-14-2-26,11c-16,18-22,19-29,8c-7-10-9-10-9,0c0,7-4,10-10,7c-5-3-10-2-10,3s-7,9-15,10s-22,3-30,4c-9,1-11,5-6,12
		c6,7,2,11-12,12c-12,1-33,5-47,9c-14,3-31,7-37,7c-7,1-13,5-13,9s-7,10-16,13c-8,3-12,2-9-4s-1-7-9-4c-9,3-13,10-10,15s4,8,2,8
		C5386,8238,5378,8236,5368,8233z M2205,7900c3-5,1-10-4-10c-6,0-11,5-11,10c0,6,2,10,4,10C2197,7910,2202,7906,2205,7900z
		 M6411,7737c-10-9-11-8-5,6c3,10,9,15,12,12S6418,7744,6411,7737z M7148,7157c17-18,19-24,7-24c-8,0-13,3-10,5c9,9-17,32-28,25
		c-6-3-7-1-3,5C7123,7184,7123,7184,7148,7157z M3165,3402c-3-3-11,0-18,7c-9,10-8,11,6,5C3163,3411,3168,3405,3165,3402z
		 M3405,3062c-3-3-11,0-18,7c-9,10-8,11,6,5C3403,3071,3408,3065,3405,3062z M3510,2934c0-8-19-13-24-6c-3,5,1,9,9,9
		S3510,2935,3510,2934z M1167,1278c-3-8-6-5-6,6c-1,11,2,17,5,13C1169,1294,1170,1285,1167,1278z M6995,1079c-4-5-12-9-18-8
		c-9,0-8,2,1,6c6,2,9,10,6,15c-4,7-2,8,5,4C6995,1092,6998,1084,6995,1079z M1545,930c-3-5-1-10,6-10s10-3,6-6c-9-9-28,6-22,17
		c4,5,8,9,11,9S1548,936,1545,930z M1790,754c0-8-19-13-24-6c-3,5,1,9,9,9S1790,755,1790,754z M1850,700c0-5-2-10-4-10
		c-3,0-8,5-11,10c-3,6-1,10,4,10C1845,710,1850,706,1850,700z M5125,622c-3-3-11,0-18,7c-9,10-8,11,6,5C5123,631,5128,625,5125,622z
		 M5365,290c3-5,1-10-4-10c-6,0-11,5-11,10c0,6,2,10,4,10C5357,300,5362,296,5365,290z"/>
	<path class="st1" d="M7105,7210c-3-5-1-10,4-10c6,0,11,5,11,10c0,6-2,10-4,10C7113,7220,7108,7216,7105,7210z"/>
	<path class="st1" d="M3590,7196c0-2,7-9,15-16c13-11,14-10,9,4S3590,7207,3590,7196z"/>
	<path class="st1" d="M7387,6899c7-7,15-10,18-7s-2,9-12,12C7379,6910,7378,6909,7387,6899z"/>
	<path class="st1" d="M913,6873c0-9,4-10,14-2c7,6,13,12,13,14c0,1-6,2-13,2C919,6887,913,6881,913,6873z"/>
	<path class="st1" d="M5205,4850c3-5,8-10,11-10c2,0,4,5,4,10c0,6-5,10-11,10C5204,4860,5202,4856,5205,4850z"/>
	<path class="st1" d="M5237,4808c19-21,31-25,14-5c-6,8-9,16-6,19c3,2-2,5-10,5C5222,4827,5222,4824,5237,4808z"/>
	<path class="st1" d="M4070,2086c0-2,8-10,18-17c15-13,16-12,3,4S4070,2094,4070,2086z"/>
	<path class="st1" d="M7284,1368l-29-33l35,30c19,17,37,31,39,33c2,1,0,2-5,2C7318,1400,7301,1385,7284,1368z"/>
	<path class="st1" d="M1193,1229c9-6,14-15,11-21c-4-7-2-8,5-4c14,9-3,36-23,36C1180,1240,1183,1235,1193,1229z"/>
</g>
<g>
	<g>
		<path d="M97.2,437.8c0,0,2.9-58.5,60.7-60.1h33.7c0,0,19.5-3.1,19.8-22.3c0.3-19.2-19.5-23.1-19.5-23.1h-37.6
			c0,0-64.1,1.7-66.5,72.5C87.8,404.8,88.2,422.9,97.2,437.8z"/>
		<path d="M133.3,396.2c0,0-6.8,25,23,30.8h35.4c0,0,19.8,1.9,19.8,22.7c0,20.8-19.8,22.4-19.8,22.4h-39.8c0,0-35.4-0.6-42.3-31.5
			C109.6,440.7,105,414.7,133.3,396.2z"/>
	</g>
	<g>
		<polygon points="451.7,376 492.7,376 561.1,472.1 519.6,472.1 		"/>
		<polygon points="520.8,376 561.1,376 492,472.1 451.7,472.1 		"/>
	</g>
	<g>
		<path d="M356.1,376.1h51.1c0,0,42.1,3.6,44.4,46.9c-2,56.9-58.2,51.7-67.2,45.3c0,0-28.5-11.4-28.3-44.6c14.5,0,27.7,0,27.7,0
			s-0.9,10.3,8.4,16.4s14.7,4,14.7,4s6.4,0,15.3-11c7.3-13.5-5.5-24.5-5.5-24.5s-1.4-3.6-15.6-3.6c-10.1,0-20.8,0-20.8,0
			S356.1,400.7,356.1,376.1z"/>
		<path d="M383.8,423.8v74.4c0,0-19.7,2-27.7-23.4l0-51H383.8z"/>
	</g>
	<g>
		<circle cx="324.4" cy="347.8" r="15.5"/>
		<path d="M326.4,435.6h-4c-7.4,0-13.5-6.1-13.5-13.5v-32.6c0-7.4,6.1-13.5,13.5-13.5h4c7.4,0,13.5,6.1,13.5,13.5v32.6
			C339.9,429.5,333.8,435.6,326.4,435.6z"/>
		<path d="M326.4,472.1h-4c-7.4,0-13.5-6.1-13.5-13.5v-32.6c0-7.4,6.1-13.5,13.5-13.5h4c7.4,0,13.5,6.1,13.5,13.5v32.6
			C339.9,466.1,333.8,472.1,326.4,472.1z"/>
	</g>
	<g>
		<g>
			<path d="M229.8,418.2L229.8,418.2c-5.4-6.1-4.4-17.4,3.4-23.6c15.9-11.2,30.7-17.6,49.7-21.3c9.7-1.3,18.2,5.9,18.5,14.2v0
				c0.3,8.3-5.8,14.7-13.3,15.7c-14.8,3.1-25.7,7.8-38.2,16.4C243.9,424.3,235.2,424.2,229.8,418.2z"/>
		</g>
		<path d="M237.5,472.1L237.5,472.1c-8.5,0-15.4-7-15.4-15.4v-65.2c0-8.5,7-15.4,15.4-15.4h0c8.5,0,15.4,7,15.4,15.4v65.2
			C253,465.2,246,472.1,237.5,472.1z"/>
	</g>
	<g>
		<path d="M613.5,435.6h-4c-7.4,0-13.5-6.1-13.5-13.5v-32.6c0-7.4,6.1-13.5,13.5-13.5h4c7.4,0,13.5,6.1,13.5,13.5v32.6
			C627,429.5,620.9,435.6,613.5,435.6z"/>
		<path d="M613.5,472.1h-4c-7.4,0-13.5-6.1-13.5-13.5v-32.6c0-7.4,6.1-13.5,13.5-13.5h4c7.4,0,13.5,6.1,13.5,13.5v32.6
			C627,466.1,620.9,472.1,613.5,472.1z"/>
		<circle cx="611.6" cy="347.8" r="15.5"/>
	</g>
	<g>
		<path d="M688.7,440.5c-9.3,0-16.9-7.3-16.9-16.3h-32.9c0,26.5,22.3,48,49.8,48c27.5,0,49.8-21.5,49.8-48h-32.9
			C705.6,433.2,698,440.5,688.7,440.5z"/>
		<path d="M688.7,407.8c9.3,0,16.9,7.3,16.9,16.3h32.9c0-26.5-22.3-48-49.8-48c-27.5,0-49.8,21.5-49.8,48h32.9
			C671.7,415.1,679.3,407.8,688.7,407.8z"/>
		<ellipse cx="722.5" cy="423.2" rx="16.9" ry="16.3"/>
		<ellipse cx="655.4" cy="423.2" rx="16.9" ry="16.3"/>
	</g>
	<path d="M579,471.6h-5.3c-4.4,0-8-3.6-8-8v-5.3c0-4.4,3.6-8,8-8h5.3c4.4,0,8,3.6,8,8v5.3C587,468,583.4,471.6,579,471.6z"/>
</g>
<rect x="86.1" y="87.7" class="st2" width="655" height="655"/>
</svg>
